<svg xmlns="http://www.w3.org/2000/svg" viewBox="0 0 512 512" width="512" height="512">
  <rect width="512" height="512" rx="112" fill="#3b82f6"/>
  <path d="M1087 729Q1176 716 1237.0 670.0Q1298 624 1343 537L1561 121H1714V0H1223L985 451Q916 591 867.5 629.5Q819 668 733 668H672V121H864V0H96V121H287V1372H96V1493H948Q1208 1493 1349.5 1388.5Q1491 1284 1491 1092Q1491 936 1390.5 845.5Q1290 755 1087 729ZM672 788H803Q943 788 1018.5 864.0Q1094 940 1094 1081Q1094 1222 1018.5 1297.0Q943 1372 803 1372H672Z" fill="#ffffff"
        transform="translate(104.46 381.00) scale(0.167448 -0.167448)"/>
</svg>
